<?xml version="1.0" encoding="UTF-8"?>
<svg id="b" data-name="Layer 2" xmlns="http://www.w3.org/2000/svg" viewBox="0 0 151.71 21.31">
  <g id="c" data-name="logo&amp;amp;typo">
    <g id="d" data-name="typography">
      <path d="M48.61,15.21c0-.14-.02-.25-.07-.33-.05-.08-.13-.13-.25-.15-.12-.02-.22,0-.31.06-.09.06-.18.17-.27.32-.41,1.22-1.05,2.16-1.91,2.79-.86.64-1.87.96-3.03.96s-2.24-.32-3.16-.97c-.92-.64-1.63-1.61-2.14-2.9-.51-1.29-.77-2.91-.77-4.86,0-1.21.12-2.3.36-3.25.24-.95.59-1.76,1.03-2.43.45-.67.98-1.18,1.6-1.53.62-.35,1.29-.53,2.02-.53s1.39.15,2.06.46c.67.31,1.31.82,1.9,1.53.6.71,1.15,1.68,1.65,2.9.09.19.21.32.34.39.14.07.29.08.47.03.17-.04.3-.12.37-.25.07-.13.09-.28.04-.45l-1.37-5.21c-.05-.2-.13-.35-.21-.44-.09-.09-.19-.14-.31-.14-.16,0-.34.08-.53.25-.19.16-.38.33-.58.49s-.38.25-.58.25c-.16,0-.41-.09-.73-.26-.32-.17-.76-.35-1.33-.52-.57-.17-1.28-.26-2.14-.26-1.38,0-2.64.25-3.8.76-1.15.51-2.14,1.22-2.98,2.13-.84.91-1.49,1.99-1.95,3.24-.47,1.25-.7,2.62-.7,4.12,0,1.95.38,3.66,1.15,5.14.77,1.48,1.86,2.64,3.27,3.47,1.41.84,3.09,1.25,5.03,1.25,1.16,0,2.21-.17,3.15-.5.94-.33,1.75-.79,2.43-1.37.68-.58,1.21-1.24,1.6-1.97.39-.73.6-1.48.62-2.26Z" fill="#fffff3"/>
      <path d="M84.42,7.8c-.54-1.29-1.31-2.39-2.31-3.31-1-.92-2.19-1.62-3.57-2.11-1.38-.49-2.9-.73-4.56-.73h-7.62c-.21,0-.36.04-.46.12-.1.08-.14.2-.14.34,0,.27.13.45.4.53l.84.18c.21.06.37.15.47.25.1.1.15.24.15.41v15.52c0,.17-.05.31-.14.4s-.25.18-.47.24l-.82.18s-.07.05-.1.06c-.06-.04-.14-.07-.22-.11-.24-.08-.42-.22-.56-.4-.14-.19-.27-.47-.41-.86l-4.73-14.84c-.11-.32-.14-.55-.1-.68.05-.13.17-.24.38-.32.17-.06.3-.14.39-.23.09-.09.13-.21.13-.34,0-.16-.05-.27-.14-.35-.1-.08-.26-.12-.49-.12h-7.15c-.21,0-.37.04-.47.12-.1.08-.15.2-.15.36,0,.12.04.22.13.31.09.09.23.18.42.28.29.16.48.35.55.58.08.23.05.58-.09,1.04l-4.01,13.22c-.21.67-.44,1.16-.68,1.47-.25.32-.53.55-.85.69l-.36.15c-.14.07-.24.14-.3.21-.06.07-.1.16-.1.27,0,.16.05.27.16.36.1.08.25.12.45.12h4.58c.21,0,.36-.04.46-.13s.14-.2.14-.35c0-.13-.04-.23-.11-.3-.07-.07-.18-.13-.32-.18l-.45-.14c-.39-.16-.71-.33-.94-.53-.23-.2-.38-.44-.44-.73-.06-.29-.02-.64.12-1.05l.97-3.22h6.27l1.38,4.41c.1.34.15.58.14.74,0,.16-.14.27-.38.34l-.58.16c-.15.05-.26.12-.33.18-.07.07-.11.17-.11.3,0,.15.05.26.15.35.1.09.26.13.47.13h6.81c.14,0,.25-.02.34-.06.09.03.19.06.32.06h8.85c2.05,0,3.83-.36,5.33-1.08,1.5-.72,2.65-1.73,3.47-3.03.81-1.3,1.22-2.82,1.22-4.57,0-1.61-.27-3.06-.81-4.34ZM52.22,13.12l2.75-9.08,2.85,9.08h-5.6ZM79.26,16.41c-.43,1.16-1.02,2.02-1.78,2.56-.76.54-1.62.81-2.59.81h-1.04c-.37,0-.64-.08-.82-.25-.18-.16-.27-.41-.27-.74V2.7h.9c.95,0,1.81.2,2.58.6.77.4,1.43.99,1.97,1.77.54.78.96,1.74,1.25,2.88.29,1.14.44,2.44.44,3.9,0,1.86-.21,3.38-.64,4.54Z" fill="#fffff3"/>
      <path d="M101.25,14.51c-.08-.13-.2-.21-.36-.23-.15-.03-.28-.01-.39.04-.11.05-.22.16-.31.33-.74,1.41-1.4,2.48-1.98,3.22-.58.74-1.14,1.24-1.68,1.5-.54.26-1.12.39-1.74.39h-1.51c-.38,0-.67-.09-.88-.27-.2-.18-.3-.46-.3-.84v-7.17h2.42c.48,0,.89.05,1.23.15s.65.29.95.57c.3.28.63.68.99,1.2.1.14.21.22.32.25s.24.03.38-.02c.13-.05.22-.12.27-.23.05-.11.05-.26,0-.44l-1.27-4.6c-.08-.32-.26-.48-.52-.48-.12,0-.22.05-.31.12-.09.07-.15.2-.2.38-.16.79-.4,1.33-.71,1.62-.31.28-.8.43-1.49.43h-2.07V2.72h2.4c.47,0,.9.05,1.29.16.4.11.8.31,1.2.61.4.3.82.72,1.25,1.27.43.55.92,1.26,1.46,2.13.09.17.21.29.34.35.14.06.29.06.45,0,.15-.05.25-.13.29-.25.05-.12.04-.27-.02-.45l-1.19-4.52c-.07-.3-.16-.51-.28-.64-.11-.12-.26-.18-.47-.18-.17,0-.35.04-.52.11-.17.07-.37.15-.58.22-.21.07-.47.11-.77.11h-11.23c-.22,0-.38.04-.47.13-.1.09-.14.2-.14.35,0,.26.14.43.42.52l.77.16c.23.07.4.16.5.25.11.1.16.23.16.4v15.54c0,.17-.05.31-.16.4-.1.1-.27.18-.5.25l-.77.16c-.28.09-.42.27-.42.52,0,.15.05.26.14.35s.25.13.47.13h11.51c.31,0,.58.03.8.1.22.07.43.14.6.21.18.07.34.11.49.11.22,0,.39-.06.5-.19.11-.13.21-.34.28-.64l1.36-5.41c.06-.2.06-.36-.02-.49Z" fill="#fffff3"/>
      <path d="M118.11,19.53l-.93-1.4c-.09-.15-.16-.31-.21-.48-.05-.17-.07-.38-.07-.63V4.77c0-.56.12-.98.36-1.27.24-.29.59-.52,1.05-.67l.49-.16c.3-.13.45-.31.45-.53,0-.15-.05-.26-.15-.35-.1-.09-.25-.13-.45-.13h-4.78c-.21,0-.37.04-.47.13-.1.09-.15.2-.15.35,0,.23.15.41.45.53l.59.16c.48.16.84.39,1.08.68.23.29.35.71.35,1.27v11.17l-8.86-13.76c-.15-.21-.28-.35-.41-.42-.13-.07-.29-.11-.48-.11h-4.56c-.17,0-.3.04-.4.11-.1.07-.15.18-.15.32,0,.09.03.19.09.29.06.11.14.24.25.42l1.21,1.79c.18.24.29.42.33.54.04.12.06.3.06.53v12.06c0,.56-.12.98-.37,1.27-.25.29-.59.51-1.04.68l-.52.16c-.3.12-.45.3-.45.53,0,.15.05.26.16.34.1.08.26.13.46.14h4.8c.21,0,.36-.05.47-.14.1-.08.15-.2.15-.34,0-.23-.16-.41-.47-.53l-.58-.16c-.47-.17-.83-.4-1.07-.69-.24-.29-.36-.7-.36-1.24V6.79l8.26,12.72c.18.24.29.42.34.53.04.12.06.24.06.36,0,.29.18.44.53.44h4.74c.17,0,.31-.04.41-.12.1-.08.15-.2.15-.36,0-.09-.02-.19-.06-.31-.04-.11-.14-.29-.29-.51Z" fill="#fffff3"/>
      <path d="M135.65,14.88c-.05-.08-.13-.13-.25-.15-.12-.02-.22,0-.31.06-.09.06-.18.17-.27.32-.41,1.22-1.05,2.16-1.91,2.79-.86.64-1.88.96-3.03.96s-2.24-.32-3.16-.97c-.92-.64-1.63-1.61-2.14-2.9-.51-1.29-.77-2.91-.77-4.86,0-1.21.12-2.3.36-3.25.24-.95.59-1.76,1.03-2.43.45-.67.98-1.18,1.6-1.53.62-.35,1.29-.53,2.02-.53s1.39.15,2.06.46c.67.31,1.31.82,1.9,1.53.6.71,1.15,1.68,1.65,2.9.09.19.21.32.34.39.14.07.29.08.47.03.17-.04.3-.12.37-.25.07-.13.09-.28.04-.45l-1.37-5.21c-.05-.2-.13-.35-.21-.44-.09-.09-.19-.14-.31-.14-.16,0-.34.08-.53.25-.19.16-.38.33-.58.49s-.38.25-.58.25c-.16,0-.41-.09-.73-.26-.32-.17-.76-.35-1.33-.52-.57-.17-1.28-.26-2.14-.26-1.38,0-2.64.25-3.79.76-1.15.51-2.14,1.22-2.98,2.13-.84.91-1.49,1.99-1.95,3.24-.47,1.25-.7,2.62-.7,4.12,0,1.95.38,3.66,1.15,5.14.77,1.48,1.86,2.64,3.27,3.47,1.41.84,3.09,1.25,5.04,1.25,1.16,0,2.21-.17,3.15-.5.94-.33,1.75-.79,2.43-1.37.68-.58,1.21-1.24,1.6-1.97.39-.73.6-1.48.62-2.26,0-.14-.02-.25-.07-.33Z" fill="#fffff3"/>
      <path d="M151.64,14.51c-.08-.13-.2-.21-.36-.23-.15-.03-.28-.01-.39.04-.11.05-.22.16-.31.33-.74,1.41-1.4,2.48-1.98,3.22-.58.74-1.14,1.24-1.68,1.5-.54.26-1.12.39-1.74.39h-1.51c-.38,0-.68-.09-.88-.27-.2-.18-.3-.46-.3-.84v-7.17h2.43c.48,0,.89.05,1.23.15.33.1.65.29.95.57.3.28.63.68.99,1.2.1.14.21.22.32.25.11.03.24.03.38-.02.13-.05.22-.12.27-.23.05-.11.05-.26,0-.44l-1.27-4.6c-.08-.32-.26-.48-.52-.48-.12,0-.22.05-.31.12-.09.07-.15.2-.2.38-.17.79-.4,1.33-.71,1.62-.31.28-.8.43-1.49.43h-2.07V2.72h2.4c.47,0,.9.05,1.29.16.4.11.8.31,1.2.61.4.3.82.72,1.25,1.27.43.55.92,1.26,1.46,2.13.09.17.21.29.34.35.14.06.29.06.45,0,.15-.05.24-.13.29-.25.05-.12.04-.27-.02-.45l-1.19-4.52c-.07-.3-.16-.51-.27-.64-.11-.12-.26-.18-.47-.18-.17,0-.35.04-.52.11-.17.07-.37.15-.58.22-.21.07-.47.11-.77.11h-11.24c-.22,0-.38.04-.47.13-.1.09-.14.2-.14.35,0,.26.14.43.42.52l.77.16c.23.07.4.16.5.25s.16.23.16.4v15.54c0,.17-.05.31-.16.4s-.27.18-.5.25l-.77.16c-.28.09-.42.27-.42.52,0,.15.05.26.14.35s.25.13.47.13h11.51c.31,0,.58.03.8.1s.43.14.6.21c.18.07.34.11.49.11.22,0,.39-.06.5-.19.11-.13.21-.34.28-.64l1.36-5.41c.06-.2.06-.36-.02-.49Z" fill="#fffff3"/>
    </g>
    <path id="e" data-name="logo" d="M0,0v21.31h25.8V0H0ZM18.82,13.84c-1.76,0-3.19-1.43-3.19-3.19s1.43-3.19,3.19-3.19,3.19,1.43,3.19,3.19-1.43,3.19-3.19,3.19Z" fill="#fffff3"/>
  </g>
</svg>